<svg width="196" height="47" viewBox="0 0 196 47" fill="none" xmlns="http://www.w3.org/2000/svg">
<rect y="1" width="46" height="46" rx="3" fill="black"/>
<path d="M30.2656 19.2236L30.1777 19.209L24.4648 35H21.5938L15.9102 19.2676L15.8223 19.2822L16.2324 28.6426V31.9971L18.5176 32.4365V35H9.68457V32.4365L11.9551 31.9971V16.6895L9.68457 16.25V13.6719H11.9551H17.5361L22.9707 29.3896H23.0586L28.5371 13.6719H36.418V16.25L34.1328 16.6895V31.9971L36.418 32.4365V35H27.585V32.4365L29.8555 31.9971V28.6426L30.2656 19.2236Z" fill="white"/>
<path d="M77.4014 19.2236L77.3135 19.209L71.6006 35H68.7295L63.0459 19.2676L62.958 19.2822L63.3682 28.6426V31.9971L65.6533 32.4365V35H56.8203V32.4365L59.0908 31.9971V16.6895L56.8203 16.25V13.6719H59.0908H64.6719L70.1064 29.3896H70.1943L75.6729 13.6719H83.5537V16.25L81.2686 16.6895V31.9971L83.5537 32.4365V35H74.7207V32.4365L76.9912 31.9971V28.6426L77.4014 19.2236ZM92.1822 35.3076C89.8971 35.3076 88.0709 34.5752 86.7037 33.1104C85.3365 31.6455 84.6529 29.7852 84.6529 27.5293V26.9434C84.6529 24.5898 85.2975 22.6514 86.5865 21.1279C87.8854 19.6045 89.6236 18.8477 91.8014 18.8574C93.94 18.8574 95.6002 19.502 96.7818 20.791C97.9635 22.0801 98.5543 23.8232 98.5543 26.0205V28.3496H89.0914L89.0621 28.4375C89.1402 29.4824 89.4869 30.3418 90.1021 31.0156C90.7271 31.6895 91.5719 32.0264 92.6363 32.0264C93.5836 32.0264 94.3697 31.9336 94.9947 31.748C95.6197 31.5527 96.3033 31.25 97.0455 30.8398L98.2027 33.4766C97.5484 33.9941 96.6988 34.4287 95.6539 34.7803C94.6187 35.1318 93.4615 35.3076 92.1822 35.3076ZM91.8014 22.1533C91.0104 22.1533 90.3854 22.4561 89.9264 23.0615C89.4674 23.667 89.1842 24.4629 89.0768 25.4492L89.1207 25.5225H94.3648V25.1416C94.3648 24.2334 94.15 23.5107 93.7203 22.9736C93.3004 22.4268 92.6607 22.1533 91.8014 22.1533ZM106.304 15.2686V19.1504H109.087V22.1533H106.304V30.2246C106.304 30.8398 106.431 31.2793 106.685 31.543C106.939 31.8066 107.28 31.9385 107.71 31.9385C108.003 31.9385 108.257 31.9287 108.472 31.9092C108.696 31.8799 108.946 31.8359 109.219 31.7773L109.585 34.8682C109.107 35.0146 108.633 35.1221 108.164 35.1904C107.696 35.2686 107.188 35.3076 106.641 35.3076C105.166 35.3076 104.029 34.9023 103.228 34.0918C102.437 33.2812 102.041 31.9971 102.041 30.2393V22.1533H99.7121V19.1504H102.041V15.2686H106.304ZM120.675 35C120.557 34.7363 120.455 34.4678 120.367 34.1943C120.279 33.9111 120.211 33.6279 120.162 33.3447C119.654 33.9307 119.034 34.4043 118.302 34.7656C117.579 35.127 116.749 35.3076 115.811 35.3076C114.259 35.3076 113.023 34.8877 112.105 34.0479C111.197 33.1982 110.743 32.0459 110.743 30.5908C110.743 29.1064 111.339 27.959 112.53 27.1484C113.721 26.3379 115.47 25.9326 117.774 25.9326H119.957V24.3799C119.957 23.6182 119.737 23.0273 119.298 22.6074C118.858 22.1875 118.209 21.9775 117.349 21.9775C116.861 21.9775 116.427 22.0361 116.046 22.1533C115.665 22.2607 115.357 22.3926 115.123 22.5488L114.845 24.248H111.622L111.637 20.7324C112.418 20.2051 113.311 19.7607 114.317 19.3994C115.333 19.0381 116.436 18.8574 117.628 18.8574C119.591 18.8574 121.182 19.3408 122.403 20.3076C123.634 21.2646 124.249 22.6318 124.249 24.4092V30.957C124.249 31.2012 124.249 31.4307 124.249 31.6455C124.259 31.8604 124.278 32.0654 124.307 32.2607L125.611 32.4365V35H120.675ZM116.969 32.1436C117.613 32.1436 118.199 32.0068 118.726 31.7334C119.254 31.4502 119.664 31.0986 119.957 30.6787V28.2617H117.774C116.866 28.2617 116.178 28.4766 115.709 28.9062C115.24 29.3262 115.006 29.834 115.006 30.4297C115.006 30.9668 115.177 31.3867 115.518 31.6895C115.87 31.9922 116.353 32.1436 116.969 32.1436ZM142.604 13.6719C145.114 13.6719 147.072 14.1602 148.479 15.1367C149.885 16.1133 150.588 17.5732 150.588 19.5166C150.588 20.5029 150.324 21.3867 149.797 22.168C149.279 22.9395 148.522 23.5205 147.526 23.9111C148.806 24.1846 149.763 24.7705 150.397 25.6689C151.042 26.5674 151.364 27.6074 151.364 28.7891C151.364 30.8301 150.69 32.3779 149.343 33.4326C147.995 34.4775 146.086 35 143.615 35H133.127V32.4365L135.397 31.9971V16.6895L133.127 16.25V13.6719H135.397H142.604ZM139.675 25.5664V31.7188H143.615C144.748 31.7188 145.612 31.4746 146.208 30.9863C146.804 30.4883 147.102 29.7559 147.102 28.7891C147.102 27.7441 146.848 26.9482 146.34 26.4014C145.832 25.8447 145.031 25.5664 143.938 25.5664H139.675ZM139.675 22.6074H142.751C143.894 22.6074 144.772 22.373 145.388 21.9043C146.003 21.4355 146.311 20.752 146.311 19.8535C146.311 18.8672 145.998 18.1396 145.373 17.6709C144.758 17.2021 143.835 16.9678 142.604 16.9678H139.675V22.6074ZM152.463 26.9287C152.463 24.5654 153.123 22.6318 154.441 21.1279C155.769 19.6143 157.6 18.8574 159.934 18.8574C162.278 18.8574 164.109 19.6094 165.427 21.1133C166.755 22.6172 167.42 24.5557 167.42 26.9287V27.2363C167.42 29.6191 166.755 31.5625 165.427 33.0664C164.109 34.5605 162.288 35.3076 159.963 35.3076C157.61 35.3076 155.769 34.5605 154.441 33.0664C153.123 31.5625 152.463 29.6191 152.463 27.2363V26.9287ZM156.741 27.2363C156.741 28.6816 156.995 29.8438 157.503 30.7227C158.01 31.5918 158.831 32.0264 159.963 32.0264C161.067 32.0264 161.873 31.5869 162.38 30.708C162.898 29.8291 163.157 28.6719 163.157 27.2363V26.9287C163.157 25.5225 162.898 24.375 162.38 23.4863C161.863 22.5977 161.047 22.1533 159.934 22.1533C158.821 22.1533 158.01 22.5977 157.503 23.4863C156.995 24.375 156.741 25.5225 156.741 26.9287V27.2363ZM167.904 32.4365L169.383 32.2021L173.69 26.9873L169.529 21.9775L168.05 21.7285V19.1504H175.184V21.626L173.734 21.8018L176.136 24.8486L178.494 21.8018L177.015 21.626V19.1504H184.178V21.7285L182.742 21.9775L178.67 26.9873L182.962 32.2021L184.456 32.4365V35H177.205V32.5391L178.655 32.3633L176.195 29.1699L173.69 32.3779L174.964 32.5391V35H167.904V32.4365Z" fill="black"/>
</svg>
