<?xml version="1.0" encoding="UTF-8"?>
<svg width="48px" height="48px" viewBox="0 0 48 48" version="1.1" xmlns="http://www.w3.org/2000/svg" xmlns:xlink="http://www.w3.org/1999/xlink">
    <g stroke="none" stroke-width="1" fill="none" fill-rule="evenodd">
        <polygon fill="#F1F3F5" points="41.6842105 11.0342825 41.6842105 35.2313425 17.6842105 35.2313425"></polygon>
        <path d="M17.3233083,9.31578947 L42.0433083,9.31578947" stroke="#A4AFB7" stroke-width="1.64210526" stroke-linecap="round" stroke-linejoin="round"></path>
        <path d="M17.3233083,35.6315789 L42.0433083,35.6315789" stroke="#A4AFB7" stroke-width="1.64210526" stroke-linecap="round" stroke-linejoin="round"></path>
        <path d="M30.9473684,39.7894737 C30.9473684,40.4867368 30.3814737,41.0526316 29.6842105,41.0526316 C28.9869474,41.0526316 28.4210526,40.4867368 28.4210526,39.7894737 C28.4210526,39.0922105 28.9869474,38.5263158 29.6842105,38.5263158 C30.3814737,38.5263158 30.9473684,39.0922105 30.9473684,39.7894737 L30.9473684,39.7894737 Z" fill="#A4AFB7"></path>
        <path d="M27.6090226,5.73684211 L31.3984962,5.73684211" stroke="#A4AFB7" stroke-width="1.64210526" stroke-linecap="round" stroke-linejoin="round"></path>
        <g transform="translate(18.947368, 12.631579)" stroke="#71D7F7" stroke-linecap="round" stroke-linejoin="round" stroke-width="1.64210526">
            <path d="M0.541196878,1.79794264 L4.33067056,1.79794264" transform="translate(2.435934, 1.797943) rotate(-45.000000) translate(-2.435934, -1.797943) "></path>
            <path d="M0.541196878,1.79794264 L4.33067056,1.79794264" transform="translate(2.435934, 1.797943) rotate(-315.000000) translate(-2.435934, -1.797943) "></path>
        </g>
        <g transform="translate(12.941293, 25.234410) scale(-1, 1) rotate(-30.000000) translate(-12.941293, -25.234410) translate(3.467609, 13.234410)">
            <path d="M5.73278166,19.2178955 C5.97754491,19.5381051 6.4452323,19.8719122 7.13584382,20.2193169 C10.9490884,22.1375285 14.4377698,20.4892578 15.3077714,19.5859375 C16.7812754,18.0560022 17.7376641,14.8690312 18.1769377,10.0250244 C18.9948396,15.999296 18.4563861,19.837367 16.5615772,21.5392377 C15.6539151,22.3544773 12.2445159,23.4442562 9.51461057,22.7962634 C8.35416262,22.52081 7.09355298,21.3280207 5.73278166,19.2178955 Z" fill="#F1F3F5"></path>
            <path d="M12.4277092,13.4375 L14.8652331,11.7258125 C16.0461452,10.8986563 17.6358347,11.1855313 18.4866971,12.37925 C18.9242402,12.9928438 18.8833624,13.8470938 18.3913157,14.412875 L12.2641983,21.4492813 C11.402738,22.4374063 10.1885181,23 8.91525249,23 L6.37174934,23 C3.02734551,23 0.315789474,20.1455937 0.315789474,16.625 L0.315789474,10.25 C0.315789474,9.37025 0.994056979,8.65625 1.82977944,8.65625 C2.6655019,8.65625 3.34376941,9.37025 3.34376941,10.25 L3.34376941,11.046875 L3.34376941,8.65625 C3.34376941,7.7765 4.02203691,7.0625 4.85775938,7.0625 C5.69348184,7.0625 6.37174934,7.7765 6.37174934,8.65625 L6.37174934,11.046875 L6.37174934,7.0625 C6.37174934,6.18275 7.05001685,5.46875 7.88573931,5.46875 C8.72146177,5.46875 9.39972928,6.18275 9.39972928,7.0625 L9.39972928,11.046875 L9.39972928,2.28125 C9.39972928,1.4015 10.0779968,0.6875 10.9137192,0.6875 C11.7494417,0.6875 12.4277092,1.4015 12.4277092,2.28125 L12.4277092,13.4375" stroke="#A4AFB7" stroke-width="1.64210526" stroke-linecap="round" stroke-linejoin="round" transform="translate(9.552632, 11.843750) scale(-1, 1) translate(-9.552632, -11.843750) "></path>
        </g>
        <path d="M17.2421053,5.05263158 L17.2421053,40.4210526 C17.2421053,42.0604663 18.5711126,43.3894737 20.2105263,43.3894737 L39.1578947,43.3894737 C40.7973084,43.3894737 42.1263158,42.0604663 42.1263158,40.4210526 L42.1263158,5.05263158 C42.1263158,3.4132179 40.7973084,2.08421053 39.1578947,2.08421053 L20.2105263,2.08421053 C18.5711126,2.08421053 17.2421053,3.4132179 17.2421053,5.05263158 Z" stroke="#A4AFB7" stroke-width="1.64210526"></path>
    </g>
</svg>